# xmcd CD database file
#
# Track frame offsets:
#	150
#	20940
#	39270
#	57585
#	75335
#	82190
#	89047
#	95910
#	102760
#
# Disc length: 1460 seconds
#
# Revision: 0
# Processed by: cddbd v1.5.2PL0 Copyright (c) Steve Scherf et al.
# Submitted via: CDex 1.51
#
DISCID=7405b209
DTITLE=A.V. - Def Jam Recordings
DYEAR=2000
DGENRE=Jazz
TTITLE0=Girls, girls, girls
TTITLE1=Always on time
TTITLE2=Luv u better
TTITLE3=Focus
TTITLE4=I should be
TTITLE5=Alright
TTITLE6=So whassup
TTITLE7=Yeah yeah
TTITLE8=Life (L.A. to Chicago)
EXTD=YEAR: 2000
EXTT0=
EXTT1=
EXTT2=
EXTT3=
EXTT4=
EXTT5=
EXTT6=
EXTT7=
EXTT8=
PLAYORDER=
